<svg width="72" height="72" viewBox="0 0 72 72" fill="none" xmlns="http://www.w3.org/2000/svg">
<circle opacity="0.24" cx="36" cy="36" r="35.5" stroke="white"/>
<path d="M31.927 28.0001C32.03 28.0001 32.1307 28.0324 32.2158 28.093L39.339 33.1718L44.3248 31.6774C44.5887 31.5966 44.8654 31.5708 45.1389 31.6016C45.4124 31.6325 45.6774 31.7193 45.9186 31.8572C46.1599 31.9951 46.3726 32.1812 46.5446 32.405C46.7167 32.6288 46.8446 32.8857 46.9211 33.1612C46.9958 33.4328 47.0177 33.7173 46.9857 33.9979C46.9537 34.2785 46.8684 34.5496 46.7347 34.7954C46.6005 35.0451 46.4198 35.2645 46.2034 35.4406C45.9869 35.6167 45.7389 35.7461 45.4739 35.8212L27.9972 40.7816C27.8857 40.8132 27.7672 40.8045 27.661 40.757C27.5549 40.7096 27.4672 40.6261 27.4123 40.5201L25.0618 35.9899C25.025 35.9191 25.0041 35.8406 25.0005 35.7602C24.997 35.6798 25.0109 35.5996 25.0413 35.5256C25.0719 35.4513 25.1181 35.3853 25.1767 35.3324C25.2352 35.2795 25.3045 35.2412 25.3793 35.2203L26.9668 34.7741C27.0566 34.748 27.1515 34.748 27.2413 34.7741L30.6334 35.7924L33.6036 34.8947L28.8923 29.8094C28.8318 29.7447 28.7881 29.665 28.7653 29.5778C28.7424 29.4907 28.7412 29.3989 28.7617 29.3111C28.7821 29.2233 28.8237 29.1424 28.8823 29.0759C28.941 29.0094 29.0149 28.9595 29.0971 28.9309L31.76 28.0257C31.8139 28.0076 31.8703 27.999 31.927 28.0001ZM39.253 34.2884C39.1499 34.2884 39.0493 34.2561 38.9642 34.1955L31.8461 29.123L30.2074 29.6813L34.935 34.7912C34.9964 34.8574 35.0404 34.939 35.0625 35.0281C35.0847 35.1172 35.0844 35.2108 35.0616 35.2998C35.0388 35.3887 34.9944 35.4701 34.9325 35.5358C34.8707 35.6015 34.7936 35.6495 34.7087 35.675L30.7727 36.8599C30.6803 36.8875 30.5824 36.8875 30.49 36.8599L27.0959 35.8437L26.2704 36.0753L28.1201 39.6352L45.2076 34.789C45.3419 34.7509 45.4676 34.6853 45.5773 34.5961C45.687 34.5068 45.7786 34.3957 45.8467 34.2692C45.9137 34.1458 45.9564 34.0098 45.9724 33.8691C45.9884 33.7283 45.9774 33.5856 45.9399 33.4494C45.8752 33.2189 45.7402 33.0166 45.5555 32.8732C45.3707 32.7297 45.1461 32.6528 44.9157 32.6541C44.8117 32.6539 44.7082 32.6694 44.6085 32.7L39.3851 34.267C39.3425 34.2801 39.2974 34.2872 39.253 34.2884Z" fill="#FCFDFE"/>
<path d="M45.4688 44.0001H26.0246V42.9326H45.4688V44.0001Z" fill="#FCFDFE"/>
</svg>
