<svg xmlns="http://www.w3.org/2000/svg" version="1.1" xmlns:xlink="http://www.w3.org/1999/xlink" width="1000" height="1000"><g clip-path="url(#SvgjsClipPath1109)"><rect width="1000" height="1000" fill="#ffffff"></rect><g transform="matrix(4.605263157894737,0,0,4.605263157894737,150,242.10526315789474)"><svg xmlns="http://www.w3.org/2000/svg" width="152" height="112" viewBox="0 0 152 112" fill="none"><path d="M54.7504 8.43488L6.41534 106.685C5.93957 107.652 4.94263 108.267 3.84934 108.267H0.38C0.170132 108.267 0 108.434 0 108.64V111.627C0 111.833 0.170132 112 0.38 112H32.2645C38.0953 112 43.4122 108.723 45.9497 103.565L67.2844 60.2009C67.3536 60.0602 67.5575 60.0603 67.6266 60.201L91.3978 108.618C92.4129 110.686 94.5433 112 96.8799 112H140.6C146.896 112 152 106.986 152 100.8V11.2C152 5.01441 146.896 0 140.6 0H68.4357C62.6048 0 57.2878 3.2771 54.7504 8.43488ZM111.143 108.267H96.8183C95.7217 108.267 94.7219 107.65 94.2454 106.679L69.517 56.3117C69.4163 56.1065 69.4164 55.8674 69.5173 55.6624L94.2865 5.31486C94.7623 4.34778 95.7592 3.73333 96.8525 3.73333H111.15C112.724 3.73333 114 4.98694 114 6.53333V105.46C114 107.01 112.721 108.267 111.143 108.267Z" fill="#05275B"></path></svg></g></g><defs><clipPath id="SvgjsClipPath1109"><rect width="1000" height="1000" x="0" y="0" rx="150" ry="150"></rect></clipPath></defs></svg>